<svg width="1916" height="673" viewBox="0 0 1916 673" fill="none" xmlns="http://www.w3.org/2000/svg">
<path d="M1703.91 672.587C1693.36 672.587 1682.57 671.72 1671.87 670C1610.19 660.12 1547.49 651.414 1485.57 644.12L1435.91 638.28L1386.07 633.52C1342.33 629.36 1320.92 627.574 1276.99 624.467L1250.48 622.587L1223.77 621C1180 618.414 1158.56 617.414 1114.49 615.88L1063.01 614.094L1011.83 613.48C993.88 613.267 975.68 613.16 957.746 613.16C913.453 613.16 868.52 613.827 824.2 615.134C822.013 615.2 819.84 615.227 817.707 615.227C814.587 615.227 811.373 615.147 807.933 614.974L730.44 618.88C694.96 620.667 677.667 621.707 642.293 624.187L606.24 626.707L570.28 629.8C536.32 632.734 519.707 634.32 485.627 637.907L458.92 640.707L429.853 644.134C368.053 651.4 305.56 660.08 244.08 669.92C233.44 671.627 222.72 672.494 212.2 672.494C165.307 672.494 121.04 655.174 87.5333 623.734C43.6 582.52 23.9464 523.72 33.613 462.427L76.1865 192.387L0 0.0135717H412.146L412.6 0.0268529H706.893L822.8 0.000160234L1458.35 0.0268529L1915.39 0.0135717L1839.2 192.387L1861.91 336.32L1881.85 462.973C1891.55 524.413 1871.92 583.214 1827.99 624.267C1794.63 655.427 1750.57 672.587 1703.91 672.587Z" fill="#FBBC00"/>
<path d="M1807.61 317.094C1806.64 310.907 1805.25 304.827 1803.48 298.894L1804.71 298.587L1787.05 186.614L1840.91 50.627H1526.32V50.6403H1523.85L822.786 50.6137L822.813 50.6403H565.893H411.84C411.627 50.6403 411.426 50.627 411.213 50.627H74.4795L128.333 186.614L83.6128 470.307C76.5995 514.787 90.6532 557.254 122.173 586.827C146.253 609.44 178.226 621.88 212.2 621.88C220.026 621.88 228.066 621.227 236.079 619.947C298.213 610 361.413 601.227 423.92 593.867L453.333 590.4L480.333 587.574C514.746 583.96 531.546 582.347 565.946 579.374L602.307 576.24L638.746 573.694C674.519 571.187 692.013 570.134 727.893 568.334L808.04 564.294C811.24 564.48 814.453 564.614 817.707 564.614C819.36 564.614 821.027 564.587 822.707 564.534C867.48 563.214 912.906 562.547 957.746 562.547C975.879 562.547 994.293 562.654 1012.44 562.867L1064.2 563.494L1116.25 565.294C1160.76 566.854 1182.45 567.867 1226.76 570.48L1253.76 572.08L1280.56 573.974C1325 577.134 1346.65 578.92 1390.87 583.134L1441.27 587.947L1491.48 593.854C1554.13 601.227 1617.52 610.04 1679.88 620.027C1687.96 621.32 1696.04 621.974 1703.91 621.974C1737.69 621.974 1769.48 609.654 1793.43 587.28C1824.89 557.88 1838.89 515.44 1831.87 470.854L1807.61 317.094Z" fill="black"/>
<path d="M447.307 218.907C448.747 207.187 449.467 201.334 450.907 189.614C452.334 178.054 449.093 168.28 441.293 160.16C433.52 152.067 423.507 147.96 411.213 147.96C346.707 147.96 282.214 147.96 217.707 147.96C218.76 150.614 219.28 151.934 220.334 154.574C222.467 158.587 224.187 164.68 225.347 172.827C226.507 180.974 226.48 189.054 225.227 197.067C210.067 293.2 194.907 389.347 179.747 485.48C177.747 498.187 180.76 508.347 188.76 515.854C196.747 523.347 207.44 525.96 220.68 523.84C284.44 513.627 348.413 504.747 412.547 497.2C418.213 451.16 421.04 428.147 426.707 382.107C391.64 393.2 374.027 398.96 338.693 411.04C335.88 431.52 334.48 441.774 331.667 462.254C313.174 464.48 303.92 465.64 285.44 468.027C280.174 468.707 276.027 467.627 272.934 464.774C269.854 461.907 268.667 458.04 269.387 453.134C281.973 367.347 294.56 281.574 307.147 195.787C324.84 195.414 333.68 195.24 351.36 194.894C356.333 194.8 360.293 196.36 363.213 199.494C366.147 202.654 367.294 206.667 366.64 211.4C364.92 223.907 364.067 230.147 362.347 242.64C396.48 232.8 413.48 228.067 447.307 218.907Z" fill="white"/>
<path d="M640.84 261.614C642.64 239.361 643.533 228.227 645.346 205.961C645.693 201.601 644.293 197.947 641.16 195.027C638.026 192.107 634.146 190.654 629.533 190.707C611.84 190.894 602.986 190.987 585.293 191.201C581.96 226.174 580.307 243.654 576.973 278.614C595.053 277.974 604.106 277.681 622.186 277.107C626.906 276.961 631.119 275.361 634.813 272.294C638.506 269.227 640.507 265.667 640.84 261.614ZM684.733 316.014C696.72 367.881 709.493 419.641 722.986 471.121C686.56 472.961 668.346 474.054 631.96 476.601C619.56 424.667 608.28 372.494 597.133 320.281C587.44 320.707 582.6 320.921 572.907 321.374C567.8 375.054 562.693 428.734 557.586 482.414C522.6 485.427 505.106 487.094 470.16 490.774C481.373 391.107 492.586 291.454 503.8 191.801C504.306 187.254 504.293 182.721 503.746 178.174C503.186 173.641 502.32 169.601 501.133 166.027C499.96 162.454 498.733 159.294 497.466 156.521C496.2 153.761 495.133 151.574 494.266 149.934C493.72 149.147 493.453 148.761 492.907 147.974C557.587 147.974 622.266 147.974 686.946 147.974C699.253 147.974 709.44 151.761 717.6 159.267C725.746 166.774 729.546 175.867 728.893 186.601C726.68 222.841 725.587 240.961 723.373 277.187C722.813 286.387 718.946 294.587 711.746 301.841C704.519 309.094 695.506 313.814 684.733 316.014Z" fill="white"/>
<path d="M925.76 409.88C926.333 341.213 926.893 272.533 927.453 203.867C927.493 199.667 925.827 196.133 922.467 193.28C919.107 190.44 915.134 189.013 910.507 189.013C893.027 189.04 884.28 189.067 866.787 189.107C864.973 262.947 863.147 336.787 861.32 410.627C861.227 414.853 862.84 418.36 866.16 421.16C869.493 423.96 873.814 425.333 879.107 425.253C897.72 424.973 907.027 424.867 925.64 424.76C925.694 418.8 925.72 415.827 925.76 409.88ZM964.813 147.973C972.893 147.973 980.293 149.707 987.013 153.16C993.72 156.6 999.147 161.2 1003.28 166.907C1007.41 172.627 1009.55 178.947 1009.64 185.867C1010.96 279.093 1012.28 372.32 1013.6 465.547C949 464.773 884.4 465.347 819.827 467.253C806.44 467.653 795.213 464.333 786.2 457.24C777.2 450.133 772.973 441.267 773.467 430.627C777.213 350.093 780.96 269.547 784.693 189C784.893 184.747 784.56 180.427 783.707 176.013C782.854 171.613 781.707 167.813 780.267 164.627C778.827 161.44 777.387 158.547 775.92 155.96C774.467 153.387 773.253 151.333 772.267 149.8C771.68 149.067 771.373 148.707 770.787 147.973C835.467 147.973 900.147 147.973 964.813 147.973Z" fill="white"/>
<path d="M1338.65 147.973C1371.76 147.973 1388.32 147.973 1421.44 147.973C1415.68 260.84 1408.61 373.56 1400.11 486.253C1355.08 481.96 1332.55 480.08 1287.45 476.893C1274.05 421.173 1260.81 365.44 1247.77 309.64C1242.93 364.227 1237.84 418.773 1232.49 473.32C1187.37 470.653 1164.8 469.6 1119.64 468.027C1099.04 375.2 1079.41 282.187 1059.8 189.147C1058.64 185.52 1057.48 181.893 1056.32 178.28C1055.16 174.653 1054.01 171.493 1052.88 168.773C1051.75 166.053 1050.63 163.573 1049.51 161.307C1048.4 159.04 1047.29 157.093 1046.2 155.427C1045.09 153.773 1044.19 152.413 1043.45 151.36C1042.73 150.307 1041.83 149.173 1040.75 147.973C1077.44 147.973 1095.79 147.973 1132.48 147.973C1147.65 221.88 1163.25 295.693 1179.25 369.427C1185.37 295.64 1191.05 221.827 1196.28 147.973C1227.92 147.973 1243.75 147.973 1275.37 147.973C1291.68 224.107 1308.35 300.16 1325.51 376.12C1330.4 300.08 1334.77 224.053 1338.65 147.973Z" fill="white"/>
<path d="M1616.19 338.614C1619.84 338.907 1623.15 340.467 1626.09 343.293C1629.04 346.133 1630.77 349.307 1631.28 352.8C1637.17 392.933 1640.12 413 1646 453.12C1646.04 453.333 1646.05 453.44 1646.08 453.64C1646.75 458.2 1645.64 461.92 1642.75 464.8C1639.87 467.68 1635.79 468.76 1630.52 468.08C1611.81 465.654 1602.47 464.48 1583.73 462.227C1576.73 411.253 1573.24 385.76 1566.24 334.787C1586.23 336.253 1596.21 337.027 1616.19 338.614ZM1682.43 147.96V147.973C1623.03 147.973 1563.61 147.973 1504.2 147.973C1491.2 147.973 1481.25 153.253 1474.28 163.667C1467.29 174.08 1465.04 189.64 1467.6 210.48C1479.36 306.054 1491.11 401.627 1502.87 497.187C1567.17 504.76 1631.32 513.667 1695.27 523.92C1708.52 526.04 1719.09 523.533 1726.96 516.173C1734.83 508.827 1737.72 498.734 1735.72 486.014C1727.64 434.76 1719.56 383.507 1711.48 332.253C1709.99 322.813 1705.35 314.44 1697.59 307.253C1689.83 300.067 1681.27 296.2 1671.85 295.573C1627.11 292.6 1604.72 291.227 1559.92 288.72C1555.64 257.6 1553.51 242.04 1549.24 210.92C1548.63 206.494 1549.79 202.694 1552.72 199.52C1555.64 196.347 1559.41 194.787 1564.03 194.88C1581.72 195.227 1590.56 195.4 1608.24 195.773C1611.13 215.52 1612.59 225.387 1615.48 245.133C1647.33 237.707 1663.19 233.893 1694.72 225.933C1692.89 214.387 1691.99 208.613 1690.16 197.067C1688.91 189.053 1688.88 180.973 1690.04 172.827C1691.2 164.68 1692.92 158.587 1695.05 154.573C1696.11 151.933 1696.63 150.613 1697.68 147.96C1691.57 147.96 1688.53 147.96 1682.43 147.96Z" fill="white"/>
</svg>
