<svg width="2163" height="1525" viewBox="0 0 2163 1525" fill="none" xmlns="http://www.w3.org/2000/svg">
<path d="M1405.31 1297.56C1400.72 1297.56 1396.03 1297.17 1391.38 1296.43C1364.59 1292.13 1337.35 1288.36 1310.44 1285.19L1288.87 1282.65L1267.22 1280.59C1248.22 1278.77 1238.92 1278 1219.83 1276.65L1208.31 1275.83L1196.71 1275.15C1177.7 1274.03 1168.38 1273.59 1149.23 1272.92L1126.87 1272.15L1104.63 1271.88C1096.83 1271.79 1088.92 1271.73 1081.14 1271.73C1061.89 1271.73 1042.37 1272.03 1023.11 1272.59C1022.16 1272.63 1021.22 1272.64 1020.29 1272.64C1018.94 1272.64 1017.54 1272.6 1016.05 1272.52L982.379 1274.23C966.967 1275 959.451 1275.45 944.081 1276.52L928.419 1277.63L912.799 1278.97C898.044 1280.24 890.825 1280.93 876.02 1282.48L864.416 1283.71L851.785 1285.2C824.94 1288.35 797.787 1292.12 771.076 1296.4C766.457 1297.13 761.796 1297.52 757.229 1297.52C736.857 1297.52 717.621 1289.99 703.067 1276.33C683.979 1258.43 675.443 1232.88 679.643 1206.25L698.137 1088.93L665.036 1005.36H844.093H844.291H972.151L1022.5 1005.35L1298.62 1005.36H1497.19L1464.08 1088.93L1473.95 1151.47L1482.62 1206.49C1486.83 1233.19 1478.3 1258.72 1459.22 1276.56C1444.72 1290.09 1425.58 1297.56 1405.31 1297.56Z" fill="#FBBC00"/>
<path d="M1450.68 1095.71L1389.38 1299.53L1296.63 1355.55H865.588L772.847 1299.53L711.532 1095.71L745.632 473.2C746.53 474.2 747.436 475.187 748.348 476.16C789.918 520.267 855.136 532.814 910.904 509.08C1011.02 466.467 1081.11 432.254 1081.11 432.254C1081.11 432.254 1151.2 466.467 1251.31 509.08C1307.08 532.814 1372.3 520.267 1413.87 476.16C1414.79 475.187 1415.68 474.2 1416.59 473.2L1450.68 1095.71Z" fill="#FBBC00"/>
<path d="M2075.12 22.0801L2050.11 0.000180885C2013.59 192.174 1873.52 317.707 1868.74 321.934C1868.66 322.014 1868.62 322.054 1868.62 322.054C1873.98 272.04 1845.43 206.16 1845.43 206.16C1824.9 240.547 1801.48 271.88 1776.54 300.307C1776.54 300.32 1776.54 300.32 1776.52 300.334C1766.02 312.747 1753.22 326.707 1737.79 341.747C1723.86 355.307 1707 370.494 1686.9 386.694C1633.14 430 1556.18 480.56 1450.08 527.04C1450.04 527.054 1450.03 527.054 1450.03 527.054C1446.4 518.294 1441.14 508.04 1433.43 497.12L1416.59 473.2L1398.28 496.013C1397.39 497.147 1310.86 603.934 1206.36 638.227C1187.22 600.654 1144.3 573.107 1144.3 573.107L1129.39 605.213C1117.78 599.467 1102.96 592.427 1089.35 586.934L1081.11 583.6L1072.87 586.934C1059.26 592.427 1044.44 599.467 1032.84 605.213L1017.92 573.107C1017.92 573.107 975.007 600.654 955.86 638.227C851.363 603.934 764.83 497.147 763.934 496.013L745.632 473.2L728.786 497.12C721.09 508.04 715.812 518.294 712.194 527.054C712.194 527.054 712.176 527.054 712.142 527.04C606.039 480.56 529.079 430 475.326 386.694C455.215 370.494 438.368 355.307 424.431 341.747C409.004 326.707 396.2 312.747 385.696 300.334C385.68 300.32 385.68 300.32 385.68 300.307C360.731 271.88 337.322 240.547 316.788 206.16C316.788 206.16 288.236 272.04 293.599 322.054C293.599 322.054 293.564 322.014 293.48 321.934C288.694 317.707 148.627 192.174 112.11 0.000180885L87.0922 22.0801C82.6776 25.9735 -20.8198 119.414 3.77357 284.267C9.5069 322.707 21.8882 360.6 36.0789 394.4L41.9482 466.547C42.5069 473.267 56.5962 632.267 138.191 731.747C169.635 770.094 205.695 799.054 237.172 819.84L256.607 856.614C258.84 860.76 312.272 958.774 416.058 1001.45C458.716 1019 508.02 1027.91 562.586 1027.91C567.915 1027.91 573.056 1027.81 577.944 1027.65L566.003 1041.19L596.871 1051.99C617.76 1059.29 640.934 1063.65 665.983 1065.03L635.859 1088.84L689.579 1094.47C697.579 1095.31 705.85 1095.73 714.155 1095.73C726.332 1095.73 737.243 1094.81 746.072 1093.68C749.895 1103.07 756.694 1113.57 768.687 1123.33C787.444 1138.6 809.128 1141.8 824.012 1141.8C831.32 1141.8 836.343 1141.01 837.274 1140.85L849.486 1138.75C854.763 1151.61 864.1 1161.89 874.011 1169.57C847.084 1200.28 814.676 1227.03 814.287 1227.36L774.335 1260.19C818.674 1269.19 856.675 1267.23 856.675 1267.23C856.675 1267.23 821.611 1353.65 895.475 1414.12C895.475 1414.12 897.167 1404.4 901.26 1394.96C901.26 1394.96 913.219 1473.52 995.963 1495.77L994.407 1462.97C994.018 1455.11 994.086 1447.72 994.442 1440.83C1026.15 1499.51 1069.67 1519.77 1072.08 1520.85L1081.11 1524.93L1090.14 1520.85C1092.55 1519.77 1136.07 1499.51 1167.78 1440.83C1168.14 1447.72 1168.2 1455.11 1167.82 1462.97L1166.26 1495.77C1249 1473.52 1260.96 1394.96 1260.96 1394.96C1265.06 1404.4 1266.75 1414.12 1266.75 1414.12C1340.6 1353.65 1305.55 1267.23 1305.55 1267.23C1305.55 1267.23 1343.55 1269.19 1387.88 1260.19L1347.94 1227.36C1347.55 1227.03 1315.14 1200.28 1288.2 1169.57C1298.12 1161.89 1307.46 1151.61 1312.74 1138.75L1324.95 1140.85C1325.87 1141.01 1330.9 1141.8 1338.2 1141.8C1353.1 1141.8 1374.78 1138.6 1393.54 1123.33C1405.52 1113.57 1412.32 1103.07 1416.15 1093.68C1424.98 1094.81 1435.88 1095.73 1448.07 1095.73C1456.36 1095.73 1464.64 1095.31 1472.64 1094.47L1526.36 1088.84L1496.23 1065.03C1521.28 1063.65 1544.46 1059.29 1565.35 1051.99L1596.22 1041.19L1584.27 1027.65C1589.16 1027.81 1594.31 1027.91 1599.63 1027.91C1654.2 1027.91 1703.51 1019 1746.16 1001.45C1849.95 958.774 1903.38 860.76 1905.62 856.614L1925.04 819.84C1956.52 799.054 1992.59 770.094 2024.03 731.747C2105.63 632.267 2119.71 473.267 2120.27 466.547L2126.14 394.4C2140.34 360.6 2152.71 322.707 2158.44 284.267C2183.04 119.414 2079.54 25.9735 2075.12 22.0801Z" fill="#FBBC00"/>
<path d="M2060.59 38.5733C2060.59 38.5733 2038.6 203.4 1846.9 372.44C1846.9 372.44 1850.28 297.08 1836.75 252.813C1836.75 252.813 1753.03 425.067 1435.88 556.987C1435.88 556.987 1433.91 535.987 1415.44 509.773C1415.44 509.773 1315.23 634.8 1194.86 664.4C1194.86 664.4 1185.59 637.12 1152.06 608.587L1139.67 635.213C1139.67 635.213 1107.6 618.027 1081.11 607.307C1054.61 618.027 1022.54 635.213 1022.54 635.213L1010.16 608.587C976.627 637.12 967.36 664.4 967.36 664.4C846.988 634.8 746.771 509.773 746.771 509.773C728.306 535.987 726.332 556.987 726.332 556.987C409.191 425.067 325.466 252.813 325.466 252.813C311.934 297.08 315.316 372.44 315.316 372.44C123.622 203.4 101.634 38.5733 101.634 38.5733C101.634 38.5733 2.40291 126.107 25.5189 281.013C42.5376 395.08 122.706 506.88 122.706 506.88C95.4309 489.333 63.8576 464.72 63.8576 464.72C63.8576 464.72 77.0015 622.467 155.195 717.813C226.516 804.787 324.408 841.573 324.408 841.573L275.991 846.227C275.991 846.227 326.734 940.947 424.414 981.12C522.094 1021.29 631.191 1000.57 631.191 1000.57L604.128 1031.23C663.962 1052.16 728.554 1040 728.554 1040C714.916 1054.37 691.862 1072.6 691.862 1072.6C731.602 1076.75 763.544 1068.23 763.544 1068.23C763.544 1068.23 760.584 1088.39 782.574 1106.28C804.562 1124.19 833.527 1119.19 833.527 1119.19C831.414 1112.2 830.356 1101.07 830.356 1101.07C862.634 1092.89 881.944 1117.13 881.944 1117.13L867.286 1120.37C870.527 1149.97 907.315 1163.37 907.315 1163.37C877.434 1203.96 828.242 1244.35 828.242 1244.35C857.207 1247.73 892.656 1241.73 892.656 1241.73C845.86 1322.36 886.596 1368.24 886.596 1368.24C890.402 1328.49 921.694 1305.45 921.694 1305.45C904.356 1427.23 972.436 1464.01 972.436 1464.01C969.475 1401.65 990.617 1366.33 990.617 1366.33C1013.03 1470.15 1081.11 1500.81 1081.11 1500.81C1081.11 1500.81 1149.19 1470.15 1171.6 1366.33C1171.6 1366.33 1192.75 1401.65 1189.79 1464.01C1189.79 1464.01 1257.87 1427.23 1240.52 1305.45C1240.52 1305.45 1271.82 1328.49 1275.63 1368.24C1275.63 1368.24 1316.36 1322.36 1269.56 1241.73C1269.56 1241.73 1305.02 1247.73 1333.98 1244.35C1333.98 1244.35 1284.79 1203.96 1254.91 1163.37C1254.91 1163.37 1291.7 1149.97 1294.94 1120.37L1280.27 1117.13C1280.27 1117.13 1299.59 1092.89 1331.87 1101.07C1331.87 1101.07 1330.8 1112.2 1328.7 1119.19C1328.7 1119.19 1357.66 1124.19 1379.64 1106.28C1401.63 1088.39 1398.67 1068.23 1398.67 1068.23C1398.67 1068.23 1430.62 1076.75 1470.36 1072.6C1470.36 1072.6 1447.31 1054.37 1433.67 1040C1433.67 1040 1498.26 1052.16 1558.1 1031.23L1531.03 1000.57C1531.03 1000.57 1640.12 1021.29 1737.8 981.12C1835.48 940.947 1886.23 846.227 1886.23 846.227L1837.82 841.573C1837.82 841.573 1935.7 804.787 2007.03 717.813C2085.22 622.467 2098.36 464.72 2098.36 464.72C2098.36 464.72 2066.79 489.333 2039.51 506.88C2039.51 506.88 2119.68 395.08 2136.7 281.013C2159.82 126.107 2060.59 38.5733 2060.59 38.5733Z" fill="black"/>
<path d="M1825.71 635.493C1820.1 640.026 1814.34 644.56 1808.5 649.106C1809 648.56 1812.47 644.827 1818.08 638.587C1842 612.013 1904.52 540.106 1939.94 477.066C1939.94 477.066 1993.84 427.413 2018.99 369.053C2018.95 369.107 2018.94 369.147 2018.91 369.187C2018.54 369.8 2017.12 372.053 2014.56 375.693C2014.38 375.96 2014.2 376.213 2014.02 376.466C1997.88 399.146 1941.16 469.426 1822.42 527.613C1822.39 527.626 1822.39 527.64 1822.38 527.626C1794.14 541.466 1762.38 554.626 1726.84 566.28C1729.82 564.506 1892.52 466.853 2017.82 281.013C2017.82 281 2017.82 281 2017.84 280.987C2039.23 249.253 2059.55 214.946 2077.78 178.106C2077.78 178.106 2141.04 381.36 1825.71 635.493Z" fill="#444648"/>
<path d="M2016.9 587.014C2016.9 587.014 2016.9 587.027 2016.87 587.054C2016.18 589.48 1970.18 745.467 1799.54 801.4C1799.54 801.4 1862.32 758.48 1904.88 700.76C1904.87 700.774 1904.86 700.774 1904.83 700.8C1902.86 701.934 1842.9 735.814 1744.76 740.627C1715.62 742.067 1683.11 740.947 1647.74 735.64C1647.74 735.64 1769.78 731.027 1925.11 645.334C1954.7 629.014 1985.5 609.747 2016.9 587.014Z" fill="#444648"/>
<path d="M1785.46 885.413C1785.46 885.413 1724.27 947.427 1639.15 950.533C1554 953.627 1454.5 923.467 1454.5 923.467C1565.84 932.773 1634.11 909.013 1634.11 909.013C1624.35 903.186 1615.22 896.813 1607.32 890.88C1591.47 878.906 1580.79 868.773 1580.79 868.773C1662.11 895.04 1735.1 891.56 1767.59 887.96C1778.54 886.747 1784.88 885.533 1785.42 885.427C1785.43 885.413 1785.46 885.413 1785.46 885.413Z" fill="#444648"/>
<path d="M1667.19 806.907C1608.83 828.667 1540.75 810.707 1540.75 810.707C1568.34 808.493 1597.62 798.76 1597.62 798.76C1590.43 792.4 1585.07 785.693 1581.15 779.733C1574.72 770 1572.2 762.347 1572.06 761.88C1585.9 770.587 1603.06 779.227 1618.96 786.573C1644.7 798.427 1667.19 806.907 1667.19 806.907Z" fill="#444648"/>
<path d="M1504.52 859.2C1457.74 892.32 1398.67 871.6 1398.67 871.6C1438 864.12 1465.78 852.28 1465.78 852.28C1459.58 843.72 1456.11 834.627 1454.14 827.094C1451.63 817.454 1451.6 810.414 1451.6 810.414C1459.54 819.667 1472.14 831.36 1483.06 840.987C1494.42 850.96 1503.94 858.707 1504.5 859.187C1504.51 859.2 1504.52 859.2 1504.52 859.2Z" fill="#444648"/>
<path d="M1470.36 1003.53C1404.39 1010.09 1361.04 976.893 1361.04 976.893C1392.34 980.987 1419.54 981.827 1419.54 981.827C1413.18 973.147 1408.55 963.187 1405.32 954.373C1400.47 941.213 1398.67 930.6 1398.67 930.6C1411.71 946.04 1428.52 963.253 1442.59 977.093C1458.16 992.387 1470.36 1003.53 1470.36 1003.53Z" fill="#444648"/>
<path d="M1252.56 931.84L1222.12 929.946C1200.91 1001.35 1167.59 1018.85 1166.55 1019.37C1195.5 971.373 1202.99 902.466 1202.99 902.466L1230.38 904.573C1239.82 869.106 1232.72 834.24 1232.31 832.146C1232.31 832.12 1232.28 832.106 1232.28 832.08C1271.2 883.466 1252.56 931.84 1252.56 931.84Z" fill="#27292B"/>
<path d="M1392.96 780.053C1344.98 829.307 1274.35 803.52 1274.35 803.52C1321.71 796.12 1334.2 782.053 1334.2 782.053C1324.46 776.373 1316.83 768.08 1311.28 760.466C1304.04 750.493 1300.35 741.64 1300.16 741.173C1316.52 751.56 1340.46 761.506 1359.94 768.746C1378.48 775.626 1392.96 780.053 1392.96 780.053Z" fill="#444648"/>
<path d="M1477.75 730.36C1411.92 764.907 1373.51 726.333 1373.51 726.333C1410.23 736.147 1443.7 725.573 1443.7 725.573C1440.99 720.907 1438.4 713.96 1436.36 707.653C1433.75 699.64 1432.02 692.667 1432.02 692.667C1443.11 702.333 1453.75 711.133 1461.96 717.813C1471.47 725.507 1477.75 730.36 1477.75 730.36Z" fill="#444648"/>
<path d="M1755.98 432.28C1755.32 434.774 1713 595.054 1517.94 703.28C1518.99 702.32 1552.75 671.08 1580.79 630.707C1580.78 630.707 1580.78 630.72 1580.76 630.72C1579.51 631.414 1538.98 653.96 1482.36 669.867C1459.04 676.427 1433.02 681.854 1405.87 684.174C1405.87 684.174 1501.82 652.814 1615.86 565.294C1661.32 530.414 1709.66 486.614 1755.95 432.32C1755.98 432.294 1755.98 432.28 1755.98 432.28Z" fill="#444648"/>
<path d="M1747.54 624.013C1747.54 624.013 1747.54 624.014 1747.51 624.027C1747.24 624.774 1728.9 672.587 1671.42 692.507C1671.42 692.507 1694.14 672.987 1704.72 651.707C1704.72 651.707 1692.39 649.16 1679.04 644.32C1673.22 642.214 1667.18 639.654 1661.9 636.694C1661.9 636.694 1689.4 634.414 1715.74 630.36C1727.39 628.574 1738.8 626.44 1747.54 624.013Z" fill="#444648"/>
<path d="M1690.86 464.72C1690.36 465.453 1676.94 485.493 1644.71 514.707C1644.56 514.84 1644.39 515 1644.22 515.147C1599.63 555.467 1519.46 613.08 1388.52 661.573C1388.52 661.573 1386.31 643.773 1382.71 630.773C1382.71 630.773 1364.52 651.173 1331.38 674.307C1339.28 678 1352.6 683.44 1369.66 687.52C1369.63 687.52 1369.62 687.52 1369.6 687.533C1368.3 688.133 1339.32 700.947 1304.68 691.347C1283.63 703.6 1258.71 715.48 1230.32 724.373C1234.39 730.92 1242.55 742.573 1254.8 753.2C1254.8 753.2 1218.36 750.413 1183.5 736.96C1188.55 741.96 1206.52 761.987 1204.59 792.653C1204.59 792.653 1198.8 780.68 1179.52 773.227V773.24C1180.1 774.573 1196.36 812.987 1169.51 848.133C1165.38 853.547 1160.22 858.88 1153.84 863.987C1153.84 863.987 1157.96 842.52 1151.52 825.28C1151.52 825.28 1156.64 817.28 1159.06 808.173C1162.24 796.08 1170.3 791.547 1170.8 791.267C1170.83 791.253 1170.83 791.253 1170.83 791.253C1170.83 791.253 1150.68 781.107 1133.96 796.333C1127.88 801.88 1123.67 806.32 1120.04 809.76C1113.71 815.76 1109.14 818.667 1099.39 818.96C1099.39 818.96 1099.42 821.12 1100.52 824.667C1102.51 830.933 1107.98 841.507 1123.07 851.72C1123.07 851.72 1120.15 893.587 1081.11 955.88C1042.07 893.587 1039.15 851.72 1039.15 851.72C1062.72 835.76 1062.83 818.96 1062.83 818.96C1047.5 818.52 1044.96 811.547 1028.25 796.333C1011.54 781.107 991.397 791.253 991.397 791.253C991.397 791.253 999.871 795.693 1003.17 808.173C1005.57 817.28 1010.7 825.28 1010.7 825.28C1004.25 842.52 1008.38 863.987 1008.38 863.987C959.75 825.08 982.72 773.213 982.72 773.213C963.42 780.68 957.636 792.653 957.636 792.653C955.691 761.987 973.67 741.96 978.727 736.96C943.851 750.413 907.416 753.2 907.416 753.2C919.663 742.573 927.832 730.92 931.892 724.373C903.51 715.48 878.595 703.6 857.537 691.347C822.085 701.173 792.57 687.52 792.57 687.52C809.619 683.44 822.931 678 830.846 674.307C797.694 651.173 779.511 630.773 779.511 630.773C775.908 643.773 773.694 661.573 773.694 661.573C547.127 577.667 472.518 466.467 471.367 464.72C631.207 605.093 757.624 626.347 757.624 626.347C761.43 599.48 771.443 582.08 771.443 582.08C885.886 711.2 994.136 702.027 994.136 702.027C996.403 673.413 1008.02 667.293 1008.02 667.293C1014.79 688.08 1027.41 694.64 1027.41 694.64C1027.41 694.64 1023.18 676.76 1030.15 670C1037.13 663.227 1081.11 641.28 1081.11 641.28C1081.11 641.28 1125.08 663.227 1132.07 670C1139.04 676.76 1134.82 694.64 1134.82 694.64C1134.82 694.64 1134.83 694.627 1134.84 694.627C1135.59 694.213 1147.63 687.44 1154.19 667.293C1154.19 667.293 1165.82 673.413 1168.08 702.027C1168.08 702.027 1276.34 711.2 1390.78 582.08C1390.78 582.08 1400.79 599.48 1404.59 626.347C1404.59 626.347 1486.52 612.573 1601.87 533.973C1629.79 514.92 1659.7 492.093 1690.86 464.72Z" fill="#27292B"/>
<path d="M435.409 566.294C435.409 566.294 210.448 432.667 84.4378 178.107C84.4378 178.107 18.8938 388.694 353.796 649.174C353.796 649.174 266.689 556.147 222.289 477.067C222.289 477.067 168.374 427.387 143.214 369.027C143.214 369.027 218.906 495.254 435.409 566.294Z" fill="#444648"/>
<path d="M514.481 735.654C514.481 735.654 341.533 729.094 145.328 587.014C145.328 587.014 190.715 745.027 362.676 801.4C362.676 801.4 299.883 758.48 257.329 700.76C257.329 700.76 358.025 759.12 514.481 735.654Z" fill="#444648"/>
<path d="M707.727 923.467C707.727 923.467 608.215 953.627 523.08 950.533C437.944 947.427 376.772 885.413 376.772 885.413C376.772 885.413 471.492 904.293 581.435 868.773C581.435 868.773 557.507 891.467 528.119 909.027C528.119 909.027 596.375 932.773 707.727 923.467Z" fill="#444648"/>
<path d="M621.465 810.707C621.465 810.707 553.386 828.68 495.031 806.907C495.031 806.907 554.019 784.707 590.174 761.867C590.174 761.867 583.937 781.64 564.591 798.76C564.591 798.76 593.874 808.48 621.465 810.707Z" fill="#444648"/>
<path d="M763.544 871.6C763.544 871.6 704.485 892.32 657.689 859.186C657.689 859.186 694.196 829.6 710.616 810.426C710.616 810.426 710.531 832.76 696.451 852.293C696.451 852.293 724.219 864.133 763.544 871.6Z" fill="#444648"/>
<path d="M801.179 976.893C801.179 976.893 757.836 1010.08 691.87 1003.53C691.87 1003.53 736.059 963.147 763.544 930.587C763.544 930.587 758.559 960.173 742.684 981.827C742.684 981.827 769.887 980.973 801.179 976.893Z" fill="#444648"/>
<path d="M929.939 832.067C929.939 832.067 922.115 868 931.842 904.573L959.22 902.467C959.22 902.467 966.727 971.387 995.692 1019.39C995.692 1019.39 961.652 1002.47 940.087 929.947L909.642 931.853C909.642 931.853 891.015 883.467 929.939 832.067Z" fill="#27292B"/>
<path d="M887.864 803.52C887.864 803.52 817.247 829.307 769.252 780.053C769.252 780.053 830.144 761.44 862.07 741.146C862.07 741.146 850.864 768.733 828.03 782.053C828.03 782.053 840.504 796.12 887.864 803.52Z" fill="#444648"/>
<path d="M788.705 726.346C788.705 726.346 750.295 764.893 684.471 730.36C684.471 730.36 706.249 713.52 730.21 692.653C730.21 692.653 724.642 715 718.51 725.573C718.51 725.573 751.987 736.146 788.705 726.346Z" fill="#444648"/>
<path d="M756.356 684.161C756.356 684.161 568.608 622.814 406.231 432.254C406.231 432.254 447.671 594.201 644.299 703.294C644.299 703.294 609.907 671.721 581.435 630.707C581.435 630.707 662.271 676.134 756.356 684.161Z" fill="#444648"/>
<path d="M500.316 636.707C500.316 636.707 443.126 631.947 414.688 624.014C414.688 624.014 432.871 672.427 490.803 692.521C490.803 692.521 468.094 672.987 457.502 651.707C457.502 651.707 482.979 646.427 500.316 636.707Z" fill="#444648"/>
<path d="M1177.54 1218.56C1178.3 1219.77 1206.58 1264.67 1197.82 1353.65C1197.82 1353.65 1186.83 1241.6 1126.78 1179.85C1126.78 1179.85 1154.11 1181.69 1180.04 1193.67C1179.55 1192.37 1157.3 1133.81 1176.26 1088.09C1176.26 1088.09 1176.26 1088.13 1176.23 1088.21C1176.14 1090.73 1174.63 1132.73 1197.39 1174.36C1220.87 1217.29 1234.74 1234.27 1247.83 1265.12C1247.14 1264.35 1224.56 1239.36 1177.54 1218.56Z" fill="#27292B"/>
<path d="M1247.83 1265.12C1247.14 1264.35 1224.56 1239.36 1177.54 1218.56L1177.52 1218.55C1193.88 1219.47 1210.36 1223.97 1210.36 1223.97C1202.63 1208.51 1191.63 1186.92 1186.64 1177.15C1184.28 1172.49 1182.19 1167.71 1180.63 1162.73C1169.86 1128.47 1175.94 1090.76 1176.23 1088.21C1176.14 1090.73 1174.63 1132.73 1197.39 1174.36C1220.87 1217.29 1234.74 1234.27 1247.83 1265.12Z" fill="#444648"/>
<path d="M1232.91 1134.43C1233.12 1137.51 1234.54 1140.81 1238.24 1143.84C1239.99 1145.27 1242.27 1145.91 1244.52 1145.67C1251.36 1144.92 1267.1 1142.17 1273.3 1132.29C1273.3 1132.29 1259.64 1132.29 1244.52 1126.25C1238.84 1123.99 1232.48 1128.32 1232.91 1134.43Z" fill="#FBBC00"/>
<path d="M984.682 1218.56C983.92 1219.77 955.639 1264.67 964.402 1353.65C964.402 1353.65 975.395 1241.6 1035.44 1179.85C1035.44 1179.85 1008.11 1181.69 982.178 1193.67C982.668 1192.37 1004.93 1133.81 985.967 1088.09C985.967 1088.09 985.967 1088.13 985.984 1088.21C986.086 1090.73 987.591 1132.73 964.824 1174.36C941.347 1217.29 927.478 1234.27 914.386 1265.12C915.08 1264.35 937.66 1239.36 984.682 1218.56Z" fill="#27292B"/>
<path d="M914.386 1265.12C915.08 1264.35 937.66 1239.36 984.682 1218.56L984.698 1218.55C968.343 1219.47 951.851 1223.97 951.851 1223.97C959.587 1208.51 970.584 1186.92 975.572 1177.15C977.942 1172.49 980.024 1167.71 981.588 1162.73C992.362 1128.47 986.278 1090.76 985.984 1088.21C986.086 1090.73 987.591 1132.73 964.824 1174.36C941.347 1217.29 927.478 1234.27 914.386 1265.12Z" fill="#444648"/>
<path d="M929.308 1134.43C929.094 1137.51 927.688 1140.81 923.98 1143.84C922.224 1145.27 919.95 1145.91 917.698 1145.67C910.86 1144.92 895.128 1142.17 888.922 1132.29C888.922 1132.29 902.582 1132.29 917.696 1126.25C923.378 1123.99 929.734 1128.32 929.308 1134.43Z" fill="#FBBC00"/>
<path d="M1123.07 1328.08C1123.07 1328.08 1122.98 1371.84 1081.11 1424.69C1039.25 1371.84 1039.15 1328.08 1039.15 1328.08C1039.15 1328.08 1056.36 1338.33 1062.08 1326.8C1062.64 1325.68 1063.05 1324.51 1063.32 1323.35C1065.92 1312.48 1057.65 1300.17 1057.65 1300.17C1067.83 1260.44 1081.11 1196.15 1081.11 1196.15C1081.11 1196.15 1094.39 1260.44 1104.58 1300.17C1104.58 1300.17 1094.42 1315.28 1100.14 1326.8C1105.86 1338.33 1123.07 1328.08 1123.07 1328.08Z" fill="#27292B"/>
<path d="M1100.14 1326.8C1099.58 1325.68 1099.18 1324.51 1098.91 1323.35C1098.91 1323.35 1097.18 1337.07 1109.76 1342.45C1109.76 1342.45 1110.39 1369.63 1081.11 1407.13C1051.83 1369.63 1052.46 1342.45 1052.46 1342.45C1065.04 1337.07 1063.32 1323.35 1063.32 1323.35C1063.05 1324.51 1062.64 1325.68 1062.08 1326.8C1056.36 1338.33 1039.15 1328.08 1039.15 1328.08C1039.15 1328.08 1039.25 1371.84 1081.11 1424.69C1122.98 1371.84 1123.07 1328.08 1123.07 1328.08C1123.07 1328.08 1105.86 1338.33 1100.14 1326.8Z" fill="#444648"/>
<path d="M1081.11 1255.33L1072.65 1296.36L1081.11 1355.56L1089.56 1296.36L1081.11 1255.33Z" fill="#444648"/>
<path d="M1419.54 981.827C1446.52 995.627 1470.36 1003.53 1470.36 1003.53C1404.39 1010.09 1361.04 976.893 1361.04 976.893C1392.34 980.987 1419.54 981.827 1419.54 981.827Z" fill="#27292B"/>
<path d="M1785.42 885.427C1785.43 885.413 1785.46 885.413 1785.46 885.413C1785.46 885.413 1724.27 947.427 1639.15 950.533C1554 953.627 1454.5 923.467 1454.5 923.467C1565.84 932.773 1634.11 909.013 1634.11 909.013C1724.5 916.746 1783.79 886.28 1785.42 885.427Z" fill="#27292B"/>
<path d="M2016.87 587.054C2016.18 589.48 1970.18 745.467 1799.54 801.4C1799.54 801.4 1862.32 758.48 1904.88 700.76C1969.23 658.187 2015.67 588.84 2016.87 587.054Z" fill="#27292B"/>
<path d="M1442.59 977.094C1429.22 969.6 1415.4 960.92 1405.32 954.374C1400.47 941.214 1398.67 930.6 1398.67 930.6C1411.71 946.04 1428.52 963.254 1442.59 977.094Z" fill="#FBBC00"/>
<path d="M1767.59 887.961C1716.75 902.454 1644.56 895.801 1607.32 890.881C1591.47 878.907 1580.79 868.774 1580.79 868.774C1662.11 895.041 1735.1 891.561 1767.59 887.961Z" fill="#FBBC00"/>
<path d="M1618.96 786.573C1605.02 784.8 1591.66 782.133 1581.15 779.733C1574.51 769.667 1572.04 761.853 1572.04 761.853C1585.88 770.587 1603.06 779.227 1618.96 786.573Z" fill="#FBBC00"/>
<path d="M1690.86 464.72C1690.36 465.453 1676.94 485.493 1644.71 514.707C1522.27 610.773 1405.38 636.427 1405.38 636.427C1405.02 630.773 1404.59 626.347 1404.59 626.347C1404.59 626.347 1486.52 612.573 1601.87 533.973C1629.79 514.92 1659.7 492.093 1690.86 464.72Z" fill="#444648"/>
<path d="M1925.11 645.333C1865.51 692.04 1783.39 726.08 1744.76 740.627C1715.62 742.067 1683.11 740.947 1647.74 735.64C1647.74 735.64 1769.78 731.027 1925.11 645.333Z" fill="#FBBC00"/>
<path d="M1715.74 630.36C1703.59 637.134 1690.39 641.507 1679.04 644.32C1673.22 642.214 1667.18 639.654 1661.9 636.694C1661.9 636.694 1689.4 634.414 1715.74 630.36Z" fill="#FBBC00"/>
<path d="M2017.82 281.014C1986.51 335.414 1920.16 438.48 1822.42 527.614C1822.39 527.627 1822.39 527.64 1822.38 527.627C1794.14 541.467 1762.38 554.627 1726.84 566.28C1729.82 564.507 1892.52 466.854 2017.82 281.014Z" fill="#FBBC00"/>
<path d="M1615.86 565.294C1595.78 587.187 1552.2 629.227 1482.36 669.867C1459.04 676.427 1433.02 681.854 1405.87 684.174C1405.87 684.174 1501.82 652.814 1615.86 565.294Z" fill="#FBBC00"/>
<path d="M1690.86 464.72C1690.36 465.454 1676.79 485.694 1644.22 515.147C1629.84 522.414 1615.35 528.68 1601.87 533.974C1629.79 514.92 1659.7 492.094 1690.86 464.72Z" fill="#FBBC00"/>
<path d="M1504.5 859.187C1504.51 859.2 1504.52 859.2 1504.52 859.2C1457.74 892.32 1398.67 871.6 1398.67 871.6C1438 864.12 1465.78 852.28 1465.78 852.28C1479 854.907 1503.4 859.014 1504.5 859.187Z" fill="#27292B"/>
<path d="M1667.19 806.907C1608.83 828.667 1540.75 810.707 1540.75 810.707C1568.34 808.493 1597.62 798.76 1597.62 798.76C1638.71 809.093 1667.19 806.907 1667.19 806.907Z" fill="#27292B"/>
<path d="M1747.51 624.027C1747.24 624.774 1728.9 672.587 1671.42 692.507C1671.42 692.507 1694.14 672.987 1704.72 651.707C1722.11 643.107 1746.75 624.6 1747.51 624.027Z" fill="#27292B"/>
<path d="M2018.91 369.187C2018.54 369.8 2017.12 372.053 2014.56 375.693C2016.03 373.547 2017.48 371.36 2018.91 369.187Z" fill="#444648"/>
<path d="M1825.71 635.493C1820.1 640.026 1814.34 644.56 1808.5 649.106C1809 648.56 1812.47 644.827 1818.08 638.587C1842 612.013 1904.52 540.106 1939.94 477.066C1939.94 477.066 1993.84 427.413 2018.99 369.053C2070.83 289.787 2077.78 178.106 2077.78 178.106C2077.78 178.106 2141.04 381.36 1825.71 635.493Z" fill="#27292B"/>
<path d="M1755.98 432.28C1755.32 434.774 1713 595.054 1517.94 703.28C1518.99 702.32 1552.75 671.08 1580.79 630.707C1673.23 562.56 1754.43 434.707 1755.95 432.32C1755.98 432.294 1755.98 432.28 1755.98 432.28Z" fill="#27292B"/>
<path d="M1334.2 782.053C1334.2 782.053 1365.83 782.093 1392.96 780.053C1344.98 829.307 1274.35 803.52 1274.35 803.52C1321.71 796.12 1334.2 782.053 1334.2 782.053Z" fill="#27292B"/>
<path d="M1477.75 730.36C1411.92 764.907 1373.51 726.333 1373.51 726.333C1410.23 736.147 1443.7 725.573 1443.7 725.573C1443.7 725.573 1460.42 729.32 1477.75 730.36Z" fill="#27292B"/>
<path d="M1483.06 840.987C1471.79 836.094 1461.31 830.841 1454.14 827.094C1451.63 817.454 1451.6 810.414 1451.6 810.414C1459.54 819.667 1472.14 831.361 1483.06 840.987Z" fill="#FBBC00"/>
<path d="M1359.94 768.747C1339.54 766.96 1322.9 763.52 1311.28 760.467C1304.04 750.494 1300.35 741.64 1300.16 741.174C1316.52 751.56 1340.46 761.507 1359.94 768.747Z" fill="#FBBC00"/>
<path d="M1461.96 717.813C1452.24 714.027 1443.06 710.36 1436.36 707.654C1433.75 699.64 1432.02 692.667 1432.02 692.667C1443.11 702.334 1453.75 711.133 1461.96 717.813Z" fill="#FBBC00"/>
<path d="M742.69 981.827C715.694 995.627 691.862 1003.53 691.862 1003.53C757.828 1010.09 801.179 976.893 801.179 976.893C769.887 980.987 742.69 981.827 742.69 981.827Z" fill="#27292B"/>
<path d="M376.8 885.427C376.783 885.413 376.767 885.413 376.767 885.413C376.767 885.413 437.944 947.427 523.075 950.533C608.22 953.627 707.727 923.467 707.727 923.467C596.38 932.773 528.115 909.013 528.115 909.013C437.724 916.746 378.424 886.28 376.8 885.427Z" fill="#27292B"/>
<path d="M145.346 587.054C146.039 589.48 192.046 745.467 362.676 801.4C362.676 801.4 299.891 758.48 257.334 700.76C192.992 658.187 146.546 588.84 145.346 587.054Z" fill="#27292B"/>
<path d="M719.635 977.094C732.998 969.6 746.816 960.92 756.898 954.374C761.751 941.214 763.544 930.6 763.544 930.6C750.503 946.04 733.691 963.254 719.635 977.094Z" fill="#FBBC00"/>
<path d="M394.628 887.961C445.471 902.454 517.662 895.801 554.89 890.881C570.755 878.907 581.428 868.774 581.428 868.774C500.106 895.041 427.12 891.561 394.628 887.961Z" fill="#FBBC00"/>
<path d="M543.254 786.573C557.207 784.8 570.57 782.133 581.074 779.733C587.705 769.667 590.174 761.853 590.174 761.853C576.338 770.587 559.17 779.227 543.254 786.573Z" fill="#FBBC00"/>
<path d="M237.105 645.333C296.711 692.04 378.829 726.08 417.461 740.627C446.605 742.067 479.113 740.947 514.481 735.64C514.481 735.64 392.445 731.027 237.105 645.333Z" fill="#FBBC00"/>
<path d="M446.487 630.36C458.631 637.134 471.824 641.507 483.173 644.32C489.009 642.214 495.048 639.654 500.324 636.694C500.324 636.694 472.823 634.414 446.487 630.36Z" fill="#FBBC00"/>
<path d="M144.397 281.014C175.705 335.414 242.06 438.48 339.808 527.614C339.826 527.627 339.826 527.64 339.842 527.627C368.088 541.467 399.836 554.627 435.373 566.28C432.397 564.507 269.699 466.854 144.397 281.014Z" fill="#FBBC00"/>
<path d="M546.366 565.294C566.443 587.187 610.014 629.227 679.852 669.867C703.178 676.427 729.208 681.854 756.356 684.174C756.356 684.174 660.402 652.814 546.366 565.294Z" fill="#FBBC00"/>
<path d="M471.367 464.72C471.859 465.454 485.423 485.694 518.001 515.147C532.378 522.414 546.873 528.68 560.354 533.974C532.429 514.92 502.525 492.094 471.367 464.72Z" fill="#FBBC00"/>
<path d="M657.728 859.187C657.712 859.2 657.695 859.2 657.695 859.2C704.48 892.32 763.544 871.6 763.544 871.6C724.219 864.12 696.445 852.28 696.445 852.28C683.219 854.907 658.811 859.014 657.728 859.187Z" fill="#27292B"/>
<path d="M495.031 806.907C553.386 828.667 621.465 810.707 621.465 810.707C593.878 808.493 564.599 798.76 564.599 798.76C523.515 809.093 495.031 806.907 495.031 806.907Z" fill="#27292B"/>
<path d="M414.704 624.027C414.975 624.774 433.328 672.587 490.803 692.507C490.803 692.507 468.085 672.987 457.499 651.707C440.109 643.107 415.465 624.6 414.704 624.027Z" fill="#27292B"/>
<path d="M336.51 635.493C342.126 640.026 347.876 644.56 353.728 649.106C353.222 648.56 349.754 644.827 344.139 638.587C320.222 612.013 257.69 540.106 222.288 477.066C222.288 477.066 168.383 427.413 143.231 369.053C91.3884 289.787 84.4377 178.106 84.4377 178.106C84.4377 178.106 21.1777 381.36 336.51 635.493Z" fill="#27292B"/>
<path d="M406.249 432.28C406.89 434.774 449.21 595.054 644.282 703.28C643.234 702.32 609.473 671.08 581.429 630.707C488.993 562.56 407.787 434.707 406.265 432.32C406.249 432.294 406.249 432.28 406.249 432.28Z" fill="#27292B"/>
<path d="M828.022 782.053C828.022 782.053 796.391 782.093 769.262 780.053C817.247 829.307 887.864 803.52 887.864 803.52C840.504 796.12 828.022 782.053 828.022 782.053Z" fill="#27292B"/>
<path d="M684.471 730.36C750.301 764.907 788.714 726.333 788.714 726.333C751.992 736.147 718.519 725.573 718.519 725.573C718.519 725.573 701.807 729.32 684.471 730.36Z" fill="#27292B"/>
<path d="M679.159 840.987C690.425 836.094 700.911 830.841 708.082 827.094C710.586 817.454 710.619 810.414 710.619 810.414C702.687 819.667 690.086 831.361 679.159 840.987Z" fill="#FBBC00"/>
<path d="M802.278 768.747C822.676 766.96 839.32 763.52 850.94 760.467C858.18 750.494 861.867 741.64 862.054 741.174C845.696 751.56 821.763 761.507 802.278 768.747Z" fill="#FBBC00"/>
<path d="M700.251 717.813C709.976 714.027 719.162 710.36 725.86 707.654C728.464 699.64 730.207 692.667 730.207 692.667C719.111 702.334 708.471 711.133 700.251 717.813Z" fill="#FBBC00"/>
<path d="M1252.56 931.84L1222.12 929.946C1237.28 922.2 1245.47 910.64 1245.47 910.64C1250.26 875.133 1233.26 834.373 1232.31 832.146C1232.31 832.12 1232.28 832.106 1232.28 832.08C1271.2 883.466 1252.56 931.84 1252.56 931.84Z" fill="#444648"/>
<path d="M909.65 931.84L940.095 929.946C924.94 922.2 916.754 910.64 916.754 910.64C911.967 875.133 928.966 834.373 929.914 832.146C929.914 832.12 929.93 832.106 929.93 832.08C891.01 883.466 909.65 931.84 909.65 931.84Z" fill="#444648"/>
<path d="M1165.36 813.441C1165.59 820.467 1170.36 833.774 1169.51 848.134C1165.38 853.547 1160.22 858.881 1153.84 863.987C1153.84 863.987 1157.96 842.521 1151.52 825.281C1151.52 825.281 1156.64 817.281 1159.06 808.174C1162.24 796.081 1170.3 791.547 1170.8 791.267C1170.66 791.627 1165.06 803.894 1165.36 813.441Z" fill="#444648"/>
<path d="M1204.59 792.653C1204.59 792.653 1198.8 780.68 1179.52 773.227C1179.5 773.213 1179.5 773.213 1179.5 773.213C1179.5 773.213 1162.72 749.68 1144.4 763.213C1131.62 772.653 1127.14 795.08 1120.04 809.76C1113.71 815.76 1109.14 818.667 1099.39 818.96C1099.39 818.96 1111.98 813.173 1113.24 791.267C1114.51 769.373 1118.54 754.467 1134.82 736.92C1151.08 719.373 1154.91 701.613 1154.06 687.88C1154.06 687.88 1145.87 694.373 1134.82 694.64C1134.82 694.64 1134.83 694.627 1134.84 694.627C1135.59 694.213 1147.63 687.44 1154.19 667.293C1154.19 667.293 1165.82 673.413 1168.08 702.027C1168.08 702.027 1168.74 712.08 1168.12 721.16C1168.12 721.16 1177.52 731.027 1183.5 736.96C1188.55 741.96 1206.52 761.987 1204.59 792.653Z" fill="#444648"/>
<path d="M1254.8 753.2C1254.8 753.2 1237.35 747.08 1214.42 727.627L1230.32 724.374C1234.39 730.92 1242.55 742.574 1254.8 753.2Z" fill="#444648"/>
<path d="M1369.66 687.52C1369.63 687.52 1369.62 687.52 1369.6 687.534C1341.54 693.614 1317.91 682.36 1317.91 682.36L1331.38 674.307C1339.28 678 1352.6 683.44 1369.66 687.52Z" fill="#444648"/>
<path d="M471.367 464.72C471.859 465.453 485.288 485.493 517.51 514.707C639.953 610.773 756.847 636.427 756.847 636.427C757.202 630.773 757.624 626.347 757.624 626.347C757.624 626.347 675.693 612.573 560.354 533.973C532.429 514.92 502.525 492.093 471.367 464.72Z" fill="#444648"/>
<path d="M1081.11 832.081L1062.08 856.267C1062.08 856.267 1066.1 891.681 1081.11 916.214C1096.12 891.681 1100.14 856.267 1100.14 856.267L1081.11 832.081Z" fill="#444648"/>
<path d="M996.86 813.441C996.623 820.467 991.854 833.774 992.716 848.134C996.843 853.547 1002 858.881 1008.38 863.987C1008.38 863.987 1004.25 842.521 1010.69 825.281C1010.69 825.281 1005.57 817.281 1003.17 808.174C999.972 796.081 991.92 791.547 991.414 791.267C991.566 791.627 997.164 803.894 996.86 813.441Z" fill="#444648"/>
<path d="M957.636 792.653C957.636 792.653 963.42 780.68 982.703 773.227C982.72 773.213 982.72 773.213 982.72 773.213C982.72 773.213 999.499 749.68 1017.82 763.213C1030.6 772.653 1035.09 795.08 1042.17 809.76C1048.52 815.76 1053.08 818.667 1062.83 818.96C1062.83 818.96 1050.24 813.173 1048.97 791.267C1047.7 769.373 1043.68 754.467 1027.41 736.92C1011.14 719.373 1007.31 701.613 1008.16 687.88C1008.16 687.88 1016.34 694.373 1027.41 694.64C1027.41 694.64 1027.39 694.627 1027.37 694.627C1026.63 694.213 1014.59 687.44 1008.02 667.293C1008.02 667.293 996.403 673.413 994.138 702.027C994.138 702.027 993.476 712.08 994.103 721.16C994.103 721.16 984.698 731.027 978.727 736.96C973.67 741.96 955.691 761.987 957.636 792.653Z" fill="#444648"/>
<path d="M907.416 753.2C907.416 753.2 924.872 747.08 947.808 727.627L931.892 724.374C927.832 730.92 919.663 742.574 907.416 753.2Z" fill="#444648"/>
<path d="M792.57 687.52C792.586 687.52 792.603 687.52 792.62 687.534C820.68 693.614 844.31 682.36 844.31 682.36L830.847 674.307C822.931 678 809.619 683.44 792.57 687.52Z" fill="#444648"/>
<path d="M1116.63 829.947C1116.63 829.947 1125.58 834.24 1135.03 826.84C1144.47 819.44 1144.82 808.52 1144.82 808.52C1144.82 808.52 1156.7 792.627 1164.72 795.067C1172.76 797.494 1179.82 803.52 1189.63 794.814C1199.54 786.014 1197.47 766.094 1215.72 757.214C1215.72 757.214 1201.55 757.08 1194.92 769.414C1188.31 781.747 1185.06 792.454 1174.63 789.134C1164.2 785.827 1157.39 783.8 1144.4 795.974C1131 808.52 1128.4 819.654 1116.63 829.947Z" fill="#FBBC00"/>
<path d="M1045.59 829.947C1045.59 829.947 1036.64 834.24 1027.19 826.84C1017.75 819.44 1017.4 808.52 1017.4 808.52C1017.4 808.52 1005.52 792.627 997.49 795.067C989.455 797.494 982.408 803.52 972.594 794.814C962.678 786.014 964.754 766.094 946.5 757.214C946.5 757.214 960.666 757.08 967.291 769.414C973.915 781.747 977.158 792.454 987.588 789.134C998.019 785.827 1004.83 783.8 1017.82 795.974C1031.21 808.52 1033.82 819.654 1045.59 829.947Z" fill="#FBBC00"/>
<path d="M1069.6 740.773C1069.6 740.773 1070.64 736.36 1078.92 735.467C1078.92 735.467 1077.19 740.773 1069.6 740.773ZM1115.19 731.773C1115.19 731.773 1108.42 732.893 1104.82 732.547C1104.82 732.547 1110.92 728.32 1113.59 721.48C1113.59 721.48 1100.75 725.28 1093.95 726.4C1083.82 728.093 1061.31 725.867 1060.35 743.12C1060.35 743.12 1048.03 746.747 1047.04 758.88C1047.04 758.88 1047.93 758.44 1049.59 757.787C1054.55 755.814 1066.3 751.947 1080.68 752.64H1080.83C1081.95 752.64 1083.04 752.747 1084.1 752.96C1091.79 754.48 1097.63 761.28 1097.63 769.413C1097.63 778.667 1090.08 786.213 1080.83 786.213C1071.58 786.213 1064.05 778.667 1064.05 769.413C1064.05 766.053 1065.05 762.907 1066.78 760.267C1058.12 761.333 1051.28 763.933 1047.73 765.547C1047.56 766.813 1047.49 768.12 1047.49 769.413C1047.49 787.827 1062.44 802.773 1080.83 802.773C1099.23 802.773 1114.19 787.827 1114.19 769.413C1114.19 760.267 1110.48 751.96 1104.48 745.92C1104.48 745.92 1113.2 739.667 1115.19 731.773Z" fill="#FBBC00"/>
<path d="M1090 719.894C1090 719.894 1093.91 698.707 1080.33 688.867C1080.33 688.867 1080.86 708.587 1070.07 722.44C1070.07 722.44 1079.59 720 1090 719.894Z" fill="#FBBC00"/>
<path d="M1450.36 1143.11C1449.94 1140.41 1449.34 1137.79 1448.56 1135.2L1449.1 1135.07L1441.43 1086.43L1464.83 1027.35H1328.15H1327.08L1022.5 1027.33L1022.51 1027.35H910.89H843.962C843.871 1027.35 843.78 1027.35 843.69 1027.35H697.394L720.792 1086.43L701.363 1209.68C698.314 1229 704.42 1247.45 718.114 1260.29C728.578 1270.12 742.47 1275.52 757.23 1275.52C760.63 1275.52 764.12 1275.24 767.6 1274.68C794.598 1270.36 822.056 1266.55 849.214 1263.36L861.988 1261.85L873.722 1260.61C888.671 1259.05 895.971 1258.35 910.912 1257.07L926.71 1255.69L942.544 1254.59C958.082 1253.51 965.683 1253.05 981.271 1252.27L1016.09 1250.51C1017.48 1250.59 1018.88 1250.64 1020.29 1250.64C1021.01 1250.64 1021.73 1250.64 1022.46 1250.61C1041.91 1250.04 1061.65 1249.75 1081.14 1249.75C1089.02 1249.75 1097 1249.8 1104.9 1249.89L1127.38 1250.16L1150 1250.95C1169.34 1251.61 1178.75 1252.05 1198 1253.2L1209.74 1253.89L1221.38 1254.72C1240.68 1256.08 1250.1 1256.87 1269.31 1258.69L1291.2 1260.79L1313.02 1263.35C1340.23 1266.56 1367.78 1270.37 1394.87 1274.72C1398.38 1275.28 1401.88 1275.56 1405.31 1275.56C1419.99 1275.56 1433.79 1270.21 1444.2 1260.49C1457.87 1247.72 1463.95 1229.28 1460.9 1209.91L1450.36 1143.11Z" fill="black"/>
<path d="M859.372 1100.45C859.998 1095.36 860.31 1092.81 860.935 1087.73C861.552 1082.71 860.148 1078.45 856.759 1074.93C853.379 1071.41 849.03 1069.63 843.69 1069.63C815.666 1069.63 787.643 1069.63 759.62 1069.63C760.076 1070.79 760.304 1071.36 760.763 1072.51C761.692 1074.25 762.438 1076.89 762.94 1080.44C763.443 1083.97 763.434 1087.48 762.886 1090.96C756.3 1132.73 749.716 1174.49 743.132 1216.27C742.262 1221.79 743.57 1226.2 747.048 1229.47C750.516 1232.72 755.163 1233.85 760.915 1232.93C788.616 1228.49 816.41 1224.64 844.271 1221.36C846.731 1201.36 847.96 1191.36 850.42 1171.36C835.186 1176.17 827.536 1178.68 812.186 1183.93C810.964 1192.83 810.352 1197.28 809.131 1206.17C801.094 1207.15 797.078 1207.64 789.048 1208.68C786.762 1208.99 784.956 1208.51 783.615 1207.27C782.275 1206.03 781.76 1204.35 782.074 1202.21C787.543 1164.95 793.012 1127.68 798.48 1090.41C806.163 1090.25 810.003 1090.17 817.687 1090.03C819.85 1089.97 821.567 1090.65 822.834 1092.01C824.11 1093.39 824.607 1095.13 824.324 1097.2C823.579 1102.63 823.207 1105.33 822.462 1110.76C837.29 1106.48 844.672 1104.43 859.372 1100.45Z" fill="white"/>
<path d="M943.45 1119.01C944.234 1109.33 944.626 1104.51 945.408 1094.83C945.562 1092.93 944.954 1091.35 943.592 1090.08C942.23 1088.81 940.544 1088.19 938.54 1088.2C930.851 1088.28 927.007 1088.32 919.318 1088.41C917.874 1103.61 917.151 1111.2 915.706 1126.39C923.562 1126.12 927.491 1125.99 935.35 1125.75C937.398 1125.68 939.227 1124.97 940.834 1123.64C942.436 1122.32 943.307 1120.77 943.45 1119.01ZM962.523 1142.64C967.731 1165.17 973.276 1187.65 979.142 1210.03C963.315 1210.83 955.404 1211.31 939.591 1212.41C934.207 1189.84 929.306 1167.19 924.46 1144.49C920.251 1144.68 918.147 1144.77 913.939 1144.97C911.72 1168.29 909.5 1191.61 907.282 1214.93C892.08 1216.24 884.483 1216.97 869.302 1218.56C874.172 1175.27 879.044 1131.97 883.915 1088.68C884.136 1086.71 884.127 1084.73 883.888 1082.76C883.65 1080.79 883.274 1079.03 882.759 1077.48C882.246 1075.93 881.715 1074.55 881.163 1073.35C880.612 1072.15 880.15 1071.2 879.774 1070.48C879.538 1070.15 879.419 1069.97 879.184 1069.64C907.284 1069.64 935.384 1069.64 963.484 1069.64C968.828 1069.64 973.258 1071.28 976.799 1074.55C980.34 1077.8 981.988 1081.76 981.706 1086.41C980.748 1102.16 980.268 1110.03 979.31 1125.77C979.067 1129.77 977.387 1133.33 974.255 1136.48C971.116 1139.64 967.203 1141.68 962.523 1142.64Z" fill="white"/>
<path d="M1067.24 1183.43C1067.48 1153.59 1067.73 1123.75 1067.97 1093.92C1067.99 1092.09 1067.26 1090.56 1065.8 1089.32C1064.35 1088.08 1062.62 1087.47 1060.61 1087.47C1053.01 1087.48 1049.21 1087.48 1041.62 1087.51C1040.83 1119.59 1040.03 1151.67 1039.24 1183.75C1039.2 1185.59 1039.9 1187.11 1041.34 1188.32C1042.79 1189.55 1044.67 1190.13 1046.97 1190.09C1055.06 1189.97 1059.1 1189.93 1067.19 1189.88C1067.21 1187.29 1067.22 1186 1067.24 1183.43ZM1084.2 1069.64C1087.71 1069.64 1090.92 1070.39 1093.84 1071.89C1096.76 1073.39 1099.12 1075.39 1100.91 1077.87C1102.71 1080.35 1103.64 1083.09 1103.68 1086.09C1104.26 1126.6 1104.83 1167.11 1105.4 1207.61C1077.34 1207.27 1049.27 1207.52 1021.21 1208.35C1015.4 1208.52 1010.52 1207.08 1006.61 1204C1002.69 1200.91 1000.86 1197.05 1001.07 1192.44C1002.7 1157.44 1004.32 1122.45 1005.95 1087.47C1006.04 1085.61 1005.89 1083.73 1005.52 1081.81C1005.15 1079.91 1004.65 1078.25 1004.03 1076.87C1003.4 1075.48 1002.78 1074.23 1002.14 1073.11C1001.51 1071.99 1000.98 1071.09 1000.55 1070.43C1000.29 1070.11 1000.17 1069.95 999.906 1069.64C1028.01 1069.64 1056.11 1069.64 1084.2 1069.64Z" fill="white"/>
<path d="M1246.62 1069.64C1261 1069.64 1268.2 1069.64 1282.58 1069.64C1280.08 1118.67 1277.02 1167.64 1273.32 1216.6C1253.75 1214.73 1243.96 1213.92 1224.38 1212.53C1218.55 1188.33 1212.8 1164.11 1207.14 1139.87C1205.03 1163.59 1202.82 1187.28 1200.5 1210.99C1180.9 1209.83 1171.08 1209.36 1151.47 1208.68C1142.52 1168.36 1133.99 1127.95 1125.47 1087.52C1124.96 1085.95 1124.46 1084.37 1123.96 1082.8C1123.46 1081.23 1122.95 1079.85 1122.47 1078.68C1121.98 1077.49 1121.48 1076.41 1121 1075.43C1120.51 1074.44 1120.03 1073.6 1119.56 1072.88C1119.08 1072.16 1118.68 1071.56 1118.36 1071.11C1118.06 1070.65 1117.66 1070.16 1117.19 1069.64C1133.14 1069.64 1141.11 1069.64 1157.04 1069.64C1163.64 1101.75 1170.42 1133.81 1177.36 1165.85C1180.03 1133.79 1182.5 1101.72 1184.76 1069.64C1198.51 1069.64 1205.39 1069.64 1219.12 1069.64C1226.22 1102.71 1233.46 1135.76 1240.91 1168.75C1243.03 1135.72 1244.94 1102.69 1246.62 1069.64Z" fill="white"/>
<path d="M1367.19 1152.45C1368.78 1152.59 1370.22 1153.27 1371.5 1154.49C1372.78 1155.72 1373.52 1157.11 1373.75 1158.63C1376.31 1176.05 1377.59 1184.77 1380.15 1202.2C1380.16 1202.29 1380.16 1202.35 1380.18 1202.44C1380.47 1204.41 1379.99 1206.03 1378.74 1207.28C1377.48 1208.53 1375.71 1209 1373.42 1208.71C1365.3 1207.65 1361.23 1207.15 1353.1 1206.16C1350.06 1184.01 1348.54 1172.95 1345.5 1150.8C1354.18 1151.44 1358.52 1151.77 1367.19 1152.45ZM1395.98 1069.63C1395.98 1069.63 1395.98 1069.63 1395.98 1069.64C1370.16 1069.64 1344.35 1069.64 1318.55 1069.64C1312.9 1069.64 1308.58 1071.93 1305.54 1076.45C1302.51 1080.97 1301.52 1087.73 1302.64 1096.79C1307.75 1138.31 1312.86 1179.83 1317.96 1221.36C1345.9 1224.64 1373.78 1228.52 1401.55 1232.96C1407.31 1233.89 1411.91 1232.8 1415.32 1229.6C1418.74 1226.41 1419.99 1222.03 1419.12 1216.49C1415.62 1194.23 1412.11 1171.96 1408.59 1149.69C1407.95 1145.6 1405.92 1141.96 1402.56 1138.84C1399.19 1135.72 1395.47 1134.04 1391.38 1133.76C1371.94 1132.47 1362.22 1131.88 1342.75 1130.79C1340.9 1117.27 1339.96 1110.51 1338.11 1096.99C1337.84 1095.07 1338.35 1093.41 1339.62 1092.03C1340.9 1090.65 1342.52 1089.97 1344.54 1090.01C1352.22 1090.16 1356.06 1090.24 1363.74 1090.4C1365 1098.97 1365.63 1103.27 1366.88 1111.85C1380.72 1108.63 1387.62 1106.96 1401.31 1103.51C1400.52 1098.49 1400.12 1095.99 1399.34 1090.96C1398.79 1087.48 1398.78 1083.97 1399.28 1080.44C1399.78 1076.89 1400.52 1074.25 1401.46 1072.51C1401.91 1071.36 1402.14 1070.79 1402.6 1069.63C1399.95 1069.63 1398.62 1069.63 1395.98 1069.63Z" fill="white"/>
<path d="M1257.31 1072.95C1257.3 1072.68 1256.56 1046.29 1252.2 1024.73C1249.91 1013.36 1256.94 1002.12 1268.22 999.133C1270.98 998.4 1273.74 998.04 1276.44 998.04C1279.26 998.04 1282.03 998.426 1284.67 999.213C1293.47 1001.8 1299.74 1009.79 1300.26 1019.09C1300.86 1030.28 1300.23 1058.73 1281.18 1081.32L1258.24 1108.49L1257.31 1072.95Z" fill="black"/>
<path d="M1280.86 1012.19C1277.58 1011.23 1274.38 1011.51 1271.68 1012.21C1267.34 1013.36 1264.58 1017.65 1265.47 1022.05C1270.12 1045.09 1270.83 1072.6 1270.83 1072.6C1286.66 1053.84 1287.3 1029.91 1286.74 1019.84C1286.55 1016.32 1284.24 1013.19 1280.86 1012.19Z" fill="#FBBC00"/>
<path d="M1299.74 1074.76C1299.78 1074.55 1304.75 1052.89 1305.9 1034.03C1306.6 1022.43 1316.19 1013.35 1327.75 1013.35C1328.34 1013.35 1328.94 1013.37 1329.54 1013.43C1332.51 1013.67 1335.36 1014.35 1338.02 1015.44C1347.79 1019.45 1353.26 1029.95 1351 1040.4C1348.43 1052.31 1341.08 1074.44 1320.74 1088.85L1291.7 1109.43L1299.74 1074.76Z" fill="black"/>
<path d="M1332.87 1027.95C1331.39 1027.33 1329.87 1027.03 1328.42 1026.91C1323.76 1026.52 1319.68 1030.17 1319.4 1034.84C1318.18 1055.13 1312.91 1077.81 1312.91 1077.81C1329.83 1065.83 1335.82 1046.64 1337.76 1037.55C1338.63 1033.59 1336.63 1029.49 1332.87 1027.95Z" fill="#FBBC00"/>
<path d="M1339.6 1090.89C1341.42 1082.85 1343.66 1071.76 1345.2 1063.85C1347.2 1053.67 1355.88 1046.56 1366.32 1046.56C1375.58 1046.56 1383.71 1052.48 1386.54 1061.28C1388.63 1067.8 1388.51 1075.19 1386.22 1082.09C1380.3 1099.83 1358.84 1106.24 1356.4 1106.92L1334.59 1112.96L1339.6 1090.89Z" fill="black"/>
<path d="M1373.66 1065.41C1371.19 1057.76 1360.03 1058.57 1358.48 1066.47C1356.9 1074.52 1354.66 1085.69 1352.79 1093.88C1352.79 1093.88 1369.56 1089.23 1373.38 1077.81C1374.84 1073.43 1374.82 1069.07 1373.66 1065.41Z" fill="#FBBC00"/>
<path d="M881.047 1081.32C861.99 1058.75 861.356 1030.28 861.968 1019.11C862.479 1009.79 868.743 1001.8 877.554 999.213C880.194 998.426 882.963 998.04 885.774 998.04C888.483 998.04 891.25 998.4 893.996 999.133C905.282 1002.12 912.316 1013.36 910.018 1024.73C905.658 1046.29 904.922 1072.68 904.915 1072.95L903.984 1108.49L881.047 1081.32Z" fill="black"/>
<path d="M890.543 1012.21C887.839 1011.51 884.648 1011.23 881.366 1012.19C877.979 1013.19 875.674 1016.32 875.48 1019.84C874.928 1029.91 875.562 1053.84 891.388 1072.6C891.388 1072.6 892.096 1045.09 896.754 1022.05C897.643 1017.65 894.883 1013.36 890.543 1012.21Z" fill="#FBBC00"/>
<path d="M841.482 1088.85C821.131 1074.44 813.788 1052.31 811.222 1040.4C808.97 1029.96 814.426 1019.45 824.198 1015.44C826.859 1014.35 829.715 1013.67 832.692 1013.41C833.286 1013.37 833.882 1013.35 834.474 1013.35C846.024 1013.35 855.624 1022.43 856.327 1034.03C857.47 1052.89 862.436 1074.55 862.487 1074.76L870.495 1109.4L841.482 1088.85Z" fill="black"/>
<path d="M833.799 1026.91C832.351 1027.03 830.835 1027.33 829.343 1027.95C825.594 1029.49 823.596 1033.59 824.45 1037.55C826.41 1046.64 832.391 1065.83 849.304 1077.81C849.304 1077.81 844.048 1055.13 842.82 1034.84C842.536 1030.17 838.463 1026.52 833.799 1026.91Z" fill="#FBBC00"/>
<path d="M805.81 1106.92C803.383 1106.24 781.922 1099.83 776.008 1082.09C773.708 1075.19 773.594 1067.8 775.684 1061.28C778.555 1052.33 786.492 1046.56 795.904 1046.56C806.331 1046.56 815.011 1053.67 817.014 1063.85C818.562 1071.73 820.791 1082.81 822.622 1090.89L827.623 1112.96L805.81 1106.92Z" fill="black"/>
<path d="M788.568 1065.41C787.398 1069.07 787.383 1073.43 788.846 1077.81C792.651 1089.23 809.424 1093.88 809.424 1093.88C807.568 1085.69 805.32 1074.52 803.736 1066.47C802.184 1058.57 791.027 1057.76 788.568 1065.41Z" fill="#FBBC00"/>
</svg>
